<svg width="1200" height="900" viewBox="0 0 1200 900" fill="none" xmlns="http://www.w3.org/2000/svg">
  <rect width="1200" height="900" fill="#EFF3F7"/>
  <rect x="90" y="120" width="1020" height="600" rx="36" fill="#FFFFFF" stroke="#D8E1E8" stroke-width="12"/>
  <rect x="150" y="210" width="900" height="360" rx="30" fill="#E2E8F0"/>
  <rect x="180" y="250" width="280" height="220" rx="20" fill="#CBD5E1"/>
  <rect x="490" y="250" width="220" height="220" rx="20" fill="#94A3B8"/>
  <rect x="740" y="250" width="240" height="220" rx="20" fill="#CBD5E1"/>
  <path d="M140 600H1060V660H140V600Z" fill="#D6DEE7"/>
  <path d="M210 238L442 238L462 470L190 470L210 238Z" fill="#BFDBFE" fill-opacity="0.7"/>
  <path d="M748 238L972 238L992 470L728 470L748 238Z" fill="#BFDBFE" fill-opacity="0.7"/>
  <rect x="140" y="760" width="326" height="68" rx="34" fill="#FFFFFF"/>
  <text x="186" y="804" font-family="Arial, sans-serif" font-size="34" font-weight="700" fill="#1E3A8A">Protection Before</text>
</svg>
